<?xml version="1.0" standalone="no"?>
<!DOCTYPE svg PUBLIC "-//W3C//DTD SVG 20010904//EN"
 "http://www.w3.org/TR/2001/REC-SVG-20010904/DTD/svg10.dtd">
<svg version="1.0" xmlns="http://www.w3.org/2000/svg"
 width="1000.000000pt" height="1000.000000pt" viewBox="0 0 1000.000000 1000.000000"
 preserveAspectRatio="xMidYMid meet">
<metadata>
Created by potrace 1.14, written by Peter Selinger 2001-2017
</metadata>
<g transform="translate(0.000000,1000.000000) scale(0.100000,-0.100000)"
fill="#000000" stroke="none">
<path d="M4318 6196 c-29 -15 -52 -40 -78 -81 -20 -33 -256 -411 -525 -840
-268 -429 -560 -894 -647 -1034 -88 -139 -162 -266 -165 -282 -12 -62 19 -128
74 -157 33 -18 94 -17 130 1 43 23 28 1 262 377 57 91 114 181 126 200 13 19
193 307 400 640 208 333 394 630 413 660 116 181 198 315 208 340 49 118 -84
236 -198 176z"/>
<path d="M5023 6210 c-71 -10 -126 -77 -121 -147 3 -40 28 -81 99 -164 56 -64
317 -375 374 -443 22 -27 45 -54 51 -61 7 -6 84 -98 173 -204 l161 -193 -78
-91 c-43 -51 -116 -137 -162 -192 -46 -55 -86 -102 -89 -105 -3 -3 -62 -72
-131 -155 -69 -82 -137 -163 -151 -180 -135 -153 -231 -276 -241 -308 -26 -84
44 -177 134 -179 27 0 57 7 74 17 16 9 72 68 124 131 52 63 115 138 140 168
216 256 305 361 414 491 70 83 135 159 144 170 9 11 40 47 68 80 28 33 58 71
67 85 22 32 22 108 0 140 -15 23 -144 180 -169 207 -7 7 -67 79 -135 160 -68
81 -128 153 -134 159 -5 6 -29 33 -51 60 -274 325 -402 475 -430 505 -41 44
-75 57 -131 49z"/>
<path d="M2298 6185 c-20 -14 -41 -31 -45 -39 -4 -7 -27 -35 -49 -62 -23 -27
-108 -128 -189 -224 -81 -96 -167 -197 -190 -225 -115 -134 -434 -514 -459
-548 -28 -37 -37 -88 -24 -138 3 -13 183 -237 208 -259 3 -3 150 -176 325
-385 176 -209 328 -389 338 -400 11 -11 31 -35 45 -54 15 -19 44 -42 66 -52
110 -49 230 60 191 174 -8 25 -507 633 -555 677 -3 3 -39 46 -80 95 -41 50
-87 104 -101 120 -49 55 -109 130 -109 136 0 3 33 44 73 91 39 47 113 134 164
194 212 252 338 401 370 439 19 22 52 60 72 84 20 25 61 74 92 110 67 79 79
101 81 144 4 116 -127 188 -224 122z"/>
<path d="M6533 5798 c-10 -18 -11 -1569 -1 -1590 7 -14 22 -18 73 -18 51 0 66
4 73 18 4 9 7 334 7 721 -1 633 3 748 20 601 3 -25 7 -56 10 -70 3 -13 7 -42
10 -65 4 -22 8 -51 10 -65 2 -14 11 -68 19 -120 24 -151 57 -362 62 -395 2
-16 6 -41 9 -55 2 -14 7 -43 10 -65 3 -22 10 -67 15 -100 5 -33 12 -78 15
-100 4 -22 9 -53 11 -70 3 -16 10 -54 14 -84 5 -29 12 -56 16 -60 11 -11 174
-8 184 4 5 6 12 29 15 51 6 45 22 145 35 224 5 30 12 75 15 100 4 25 13 88 21
140 9 52 17 106 19 120 2 14 6 39 9 55 2 17 25 163 51 325 25 162 48 300 50
305 4 13 6 -209 5 -867 0 -284 3 -524 6 -532 8 -20 123 -23 142 -4 17 17 17
1579 0 1596 -8 8 -53 12 -135 12 -106 0 -124 -2 -132 -17 -8 -16 -22 -94 -37
-210 -2 -18 -6 -50 -9 -70 -3 -21 -15 -103 -26 -183 -29 -208 -30 -213 -34
-230 -2 -8 -7 -42 -10 -75 -4 -33 -8 -67 -10 -75 -2 -8 -6 -34 -9 -57 -13 -94
-17 -129 -21 -153 -9 -60 -28 -197 -29 -217 -2 -24 -13 -41 -13 -20 0 6 -6 53
-12 102 -7 50 -14 103 -16 118 -4 26 -12 81 -20 137 -11 76 -15 110 -21 155
-3 28 -8 59 -10 70 -2 11 -10 67 -19 125 -14 106 -19 137 -35 245 -5 33 -12
80 -15 105 -3 25 -7 56 -10 69 -2 13 -7 49 -11 80 -12 106 -5 101 -153 101
-93 0 -132 -4 -138 -12z"/>
<path d="M7755 5801 c-8 -14 -9 -1586 -1 -1600 10 -15 348 -13 457 3 216 33
342 114 410 261 30 65 39 105 44 201 9 169 -125 330 -320 385 l-40 11 70 25
c157 56 224 145 233 309 12 221 -91 342 -338 400 -14 4 -134 9 -266 11 -177 4
-243 2 -249 -6z m410 -145 c168 -18 257 -91 268 -221 9 -110 -47 -202 -156
-254 -75 -37 -133 -47 -257 -46 l-95 0 -3 262 -2 262 27 3 c36 4 154 1 218 -6z
m-4 -688 c158 -27 252 -82 301 -178 25 -47 29 -64 27 -127 -6 -210 -142 -309
-441 -319 l-128 -4 0 320 0 321 94 -2 c51 -1 118 -6 147 -11z"/>
</g>
</svg>
